<svg id="グループ_21" data-name="グループ 21" xmlns="http://www.w3.org/2000/svg" xmlns:xlink="http://www.w3.org/1999/xlink" width="315.355" height="101.43" viewBox="0 0 315.355 101.43">
  <defs>
    <clipPath id="clip-path">
      <rect id="長方形_28" data-name="長方形 28" width="315.355" height="101.43" transform="translate(0 0)" fill="none"/>
    </clipPath>
  </defs>
  <g id="グループ_20" data-name="グループ 20" clip-path="url(#clip-path)">
    <path id="パス_5" data-name="パス 5" d="M57.989,62.915a7.337,7.337,0,1,0,10.373-.273,7.336,7.336,0,0,0-10.373.273" fill="#8dc21f"/>
    <path id="パス_6" data-name="パス 6" d="M56.032,50.74l7.254,6.882a7.337,7.337,0,1,1,10.645,10.1L81.184,74.6,99.045,55.778a8.746,8.746,0,0,0-.324-12.329L79.895,25.588Z" fill="#2ca6e0"/>
    <path id="パス_7" data-name="パス 7" d="M43.4,2.708,25.537,21.534,50.689,45.4l6.882-7.254A7.337,7.337,0,1,1,67.671,27.5l6.881-7.253L55.727,2.384A8.747,8.747,0,0,0,43.4,2.708" fill="#fff000"/>
    <path id="パス_8" data-name="パス 8" d="M62.641,33.114a7.337,7.337,0,1,0,10.373-.273,7.336,7.336,0,0,0-10.373.273" fill="#2ca6e0"/>
    <path id="パス_9" data-name="パス 9" d="M32.85,28.36a7.337,7.337,0,1,0,10.373-.273,7.336,7.336,0,0,0-10.373.273" fill="#fff000"/>
    <path id="パス_10" data-name="パス 10" d="M38.144,43.812A7.337,7.337,0,1,1,27.5,33.712L20.245,26.83,2.384,45.656a8.747,8.747,0,0,0,.324,12.329L21.534,75.846,45.4,50.694Z" fill="#f29600"/>
    <path id="パス_11" data-name="パス 11" d="M28.143,58.22a7.337,7.337,0,1,0,10.372-.273,7.336,7.336,0,0,0-10.372.273" fill="#f29600"/>
    <path id="パス_12" data-name="パス 12" d="M43.854,63.287a7.337,7.337,0,1,1-10.1,10.645l-6.882,7.254L45.7,99.047a8.747,8.747,0,0,0,12.329-.324L75.888,79.9,50.736,56.034Z" fill="#8dc21f"/>
    <path id="パス_13" data-name="パス 13" d="M182.487,67.089a1.8,1.8,0,0,1-1.086,1.658,4.515,4.515,0,0,1-2.111.574,8.807,8.807,0,0,1-3.076-.784,35.427,35.427,0,0,1-4.283-2.142q-2.352-1.357-5.036-3.137t-5.459-3.769a75.553,75.553,0,0,1-7.6,2.292q-3.921.966-7.63,1.538t-6.966.844q-3.258.271-5.73.272-.906,0-2.865-.151a34.591,34.591,0,0,1-4.4-.664,37.589,37.589,0,0,1-5.037-1.447,17.609,17.609,0,0,1-4.734-2.564,13.287,13.287,0,0,1-3.5-3.98,11.175,11.175,0,0,1-1.357-5.67,20.482,20.482,0,0,1,2.5-9.922,35.1,35.1,0,0,1,6.484-8.475,49.534,49.534,0,0,1,8.927-6.846,79.835,79.835,0,0,1,9.8-5.066,62.438,62.438,0,0,1,9.108-3.167,29.335,29.335,0,0,1,6.907-1.086,13.461,13.461,0,0,1,3.226.363,8.97,8.97,0,0,1,2.564,1.025,5.661,5.661,0,0,1,1.719,1.568,3.4,3.4,0,0,1,.633,1.99,5.544,5.544,0,0,1-1.779,4.132,14.218,14.218,0,0,1-4.162,2.774,24.478,24.478,0,0,1-4.765,1.569,18.734,18.734,0,0,1-3.589.512,4.159,4.159,0,0,1-1.025-.241,2.058,2.058,0,0,1-.754-.392.918.918,0,0,1-.332-.754,1.868,1.868,0,0,1,.633-1.387,6.258,6.258,0,0,1,1.539-1.055,14.412,14.412,0,0,1,1.9-.785,13.175,13.175,0,0,0,1.72-.693q.662-.3,1.447-.634a10.368,10.368,0,0,0,1.418-.724,6.868,6.868,0,0,0,1.055-.783,1.126,1.126,0,0,0,.422-.815.951.951,0,0,0-.754-.965,5.047,5.047,0,0,0-1.538-.241,26.166,26.166,0,0,0-5.911.9,55.321,55.321,0,0,0-7.9,2.655,74.488,74.488,0,0,0-8.534,4.221,44.818,44.818,0,0,0-7.781,5.61,28.721,28.721,0,0,0-5.64,6.876,15.712,15.712,0,0,0-2.171,8.022,5.793,5.793,0,0,0,1.6,4.192,11.4,11.4,0,0,0,4.162,2.654,24.859,24.859,0,0,0,5.76,1.418,48.866,48.866,0,0,0,6.394.422,69.079,69.079,0,0,0,9.47-.694A70.391,70.391,0,0,0,154.2,54.06q-2.595-2.049-4.916-3.98t-4.011-3.469q-1.689-1.538-2.684-2.563t-1-1.327a1.5,1.5,0,0,1,.634-1.3,2.2,2.2,0,0,1,1.3-.452,2.8,2.8,0,0,1,1.085.18q2.773,1.209,5.85,2.775,2.654,1.328,5.972,3.046t6.876,3.71a36.1,36.1,0,0,0,4.1-2.322,20.666,20.666,0,0,0,3.227-2.594,11.334,11.334,0,0,0,2.111-2.835,6.632,6.632,0,0,0,.754-3.046,5.024,5.024,0,0,0-1.056-2.835,12.611,12.611,0,0,0-2.775-2.805,16.743,16.743,0,0,0-3.92-2.171,11.93,11.93,0,0,0-4.433-.874,12.261,12.261,0,0,1-3.227-.3,1.435,1.435,0,0,1-1.055-1.448,1.332,1.332,0,0,1,1.115-1.387,10.964,10.964,0,0,1,2.8-.3A24.986,24.986,0,0,1,169.307,29a17.7,17.7,0,0,1,5.671,3.136A12.182,12.182,0,0,1,178.2,36.3a10.462,10.462,0,0,1,1.026,4.312,14.135,14.135,0,0,1-2.413,8.174,23.55,23.55,0,0,1-6.333,6.182q2.472,1.629,4.674,3.227a36.089,36.089,0,0,1,3.831,3.167,17.375,17.375,0,0,1,2.563,3.016,5.062,5.062,0,0,1,.935,2.714" fill="#630"/>
    <path id="パス_14" data-name="パス 14" d="M198.178,51.527a5.767,5.767,0,0,1-1.493,4.23,5.274,5.274,0,0,1-3.935,1.516,6.342,6.342,0,0,1-3.326-.883,10.178,10.178,0,0,1-2.6-2.239,15.709,15.709,0,0,1-1.946-2.963,26.182,26.182,0,0,1-1.335-3.075,22.787,22.787,0,0,1-.768-2.579,8.842,8.842,0,0,1-.249-1.425,2.347,2.347,0,0,1,.362-1.2,1.3,1.3,0,0,1,1.221-.611,1.535,1.535,0,0,1,.86.271,2.755,2.755,0,0,1,.7.679,6.34,6.34,0,0,1,.52.86,3.846,3.846,0,0,1,.317.859,22.391,22.391,0,0,0,.791,2.307,17.142,17.142,0,0,0,1.425,2.827,10.6,10.6,0,0,0,1.991,2.376,3.633,3.633,0,0,0,2.443.995,2.561,2.561,0,0,0,1.742-.611,2.423,2.423,0,0,0,.7-1.922,5.068,5.068,0,0,0-.339-1.923,14.921,14.921,0,0,0-.724-1.539q-.384-.7-.723-1.356a2.869,2.869,0,0,1-.34-1.335,1.115,1.115,0,0,1,.226-.7.914.914,0,0,1,.77-.294,1.779,1.779,0,0,1,1.334.859,9.866,9.866,0,0,1,1.177,2.059,16.639,16.639,0,0,1,.858,2.533,9.473,9.473,0,0,1,.34,2.284" fill="#630"/>
    <path id="パス_15" data-name="パス 15" d="M224.56,52.84a2.094,2.094,0,0,1-.633,1.538,2.044,2.044,0,0,1-1.493.633,1.174,1.174,0,0,1-.836-.317,4.1,4.1,0,0,1-.612-.723c-.18-.272-.347-.513-.5-.725s-.3-.316-.452-.316q-.137,0-.294.294a6.7,6.7,0,0,1-.453.7,6.032,6.032,0,0,1-.882.926,5.535,5.535,0,0,1-1.584.928,13.53,13.53,0,0,1-2.532.7,20.494,20.494,0,0,1-3.755.293,19.757,19.757,0,0,1-3.8-.316,10.19,10.19,0,0,1-2.6-.837,4.227,4.227,0,0,1-1.492-1.154,2.1,2.1,0,0,1-.475-1.267,2.8,2.8,0,0,1,.769-1.809,7.11,7.11,0,0,1,2.149-1.628,14.8,14.8,0,0,1,3.257-1.2,16.45,16.45,0,0,1,4.049-.475,1.482,1.482,0,0,1,.294.023,1.109,1.109,0,0,0,.2.022l.091-.091a.13.13,0,0,0,.045-.09v-.046c0-.029-.061-.074-.181-.135q-.091-.043-.95-.34t-2.171-.678q-1.312-.384-2.9-.7a28.784,28.784,0,0,0-3.122-.452,4.33,4.33,0,0,1-1.267-.317.962.962,0,0,1-.678-.95,1.807,1.807,0,0,1,.407-.995,2.783,2.783,0,0,1,.973-.656,4.589,4.589,0,0,1,1.832-.294,21.092,21.092,0,0,1,6.785,1.04,25.846,25.846,0,0,1,5.519,2.579,27.114,27.114,0,0,1,4.23,3.234A31.551,31.551,0,0,1,224.38,52.3a.742.742,0,0,1,.18.543m-7.418-.86c0-.272-.453-.527-1.357-.769a16.248,16.248,0,0,0-3.936-.362,19.755,19.755,0,0,0-2.986.181,10.43,10.43,0,0,0-1.764.407,2.45,2.45,0,0,0-.86.453c-.15.151-.226.256-.226.316q0,.271.678.43a12.716,12.716,0,0,0,1.493.249q.951.09,2.127.09,1.039,0,2.239-.09t2.217-.227a13.694,13.694,0,0,0,1.7-.316c.453-.12.679-.242.679-.362" fill="#630"/>
    <path id="パス_16" data-name="パス 16" d="M243.918,36.735a1.28,1.28,0,0,1-.883,1.176,8.243,8.243,0,0,1-2.171.61,19.579,19.579,0,0,1-2.782.227q-1.492.024-2.669.023h-2.284q-1.246,0-2.556-.046,1.085,2.534,2.149,5.158t1.945,4.953q.882,2.33,1.424,4.252a11.843,11.843,0,0,1,.543,3.009q0,1.627-1.447,1.628a2.424,2.424,0,0,1-1.652-.814,9.857,9.857,0,0,1-1.628-2.217,26.364,26.364,0,0,1-1.538-3.3q-.747-1.9-1.447-4.026t-1.335-4.388q-.635-2.262-1.176-4.434-1.675-.088-3.235-.158t-2.8-.136q-1.243-.067-2.08-.158c-.558-.06-.9-.1-1.018-.136-.03,0-.188-.029-.475-.09a6.976,6.976,0,0,1-.928-.272,3.691,3.691,0,0,1-.9-.474.852.852,0,0,1-.406-.7.938.938,0,0,1,.361-.656,2.865,2.865,0,0,1,.725-.407,4.049,4.049,0,0,1,.813-.226c.272-.045.469-.083.588-.113q2.172-.361,4.207-.565t4.117-.3q-.361-1.536-.61-2.8t-.43-2.217c-.121-.753-.241-1.418-.362-1.99a3.089,3.089,0,0,1,.136-.838.6.6,0,0,1,.633-.475,1.206,1.206,0,0,1,.95.5,4.969,4.969,0,0,1,.7,1.177,10.142,10.142,0,0,1,.475,1.334c.12.437.211.746.271.927q.273.859.656,1.945t.882,2.308q1.088-.046,2.239-.045h2.376q2.307,0,4.275.135a22.705,22.705,0,0,1,3.37.452,6.41,6.41,0,0,1,2.194.86,1.572,1.572,0,0,1,.792,1.312" fill="#630"/>
    <path id="パス_17" data-name="パス 17" d="M252.336,47.908a.816.816,0,0,1-.248.633,1.4,1.4,0,0,1-.611.318,2.87,2.87,0,0,1-.9.135,2.483,2.483,0,0,1-1.47-.43,4.482,4.482,0,0,1-1.018-.972,10.057,10.057,0,0,1-.656-.972c-.167-.288-.295-.43-.385-.43q-.092,0-.18.452t-.182,1.153q-.09.7-.136,1.629T246.5,51.3a11.764,11.764,0,0,0,.2,2.262,10.152,10.152,0,0,1,.2,1.945,1.124,1.124,0,0,1-.317.792,1.3,1.3,0,0,1-1,.339,2.138,2.138,0,0,1-1.469-.656,6.479,6.479,0,0,1-1.267-1.719,14.579,14.579,0,0,1-1-2.4q-.431-1.333-.723-2.646t-.453-2.465a14.516,14.516,0,0,1-.158-1.923,4.514,4.514,0,0,1,.294-1.538q.294-.814.927-.859a1.47,1.47,0,0,1,1.041.429,1.852,1.852,0,0,1,.5.611q0,.045.225.792t.475,1.628q.249.882.453,1.629a7.393,7.393,0,0,1,.2.837c0,.242.06.362.182.362q.09,0,.2-.837t.227-1.878c.074-.693.158-1.334.248-1.922s.151-.928.182-1.018a4.676,4.676,0,0,1,.271-1.04,2.522,2.522,0,0,1,.384-.679.75.75,0,0,1,.611-.317,1.526,1.526,0,0,1,1.176.362q1.223,1.4,2.126,2.669.77,1.086,1.425,2.149a3.574,3.574,0,0,1,.656,1.7" fill="#630"/>
    <path id="パス_18" data-name="パス 18" d="M281.826,54.467a.814.814,0,0,1-.543.724,6.734,6.734,0,0,1-1.763.475q-1.223.2-3.212.385t-4.887.452q-2.713.271-4.84.408t-3.845.135a32.352,32.352,0,0,1-3.619-.181,9.117,9.117,0,0,1-2.692-.679,3.951,3.951,0,0,1-1.7-1.356,3.851,3.851,0,0,1-.588-2.218,6.332,6.332,0,0,1,.791-2.985,13.075,13.075,0,0,1,2.1-2.873,19.8,19.8,0,0,1,2.986-2.555,25.655,25.655,0,0,1,3.415-2.036,21.71,21.71,0,0,1,3.416-1.358,10.631,10.631,0,0,1,2.985-.5,4.628,4.628,0,0,1,2.217.43,3.471,3.471,0,0,1,1.131.927,2.481,2.481,0,0,1,.5,1.4,3.758,3.758,0,0,1-.815,2.239,10.672,10.672,0,0,1-2.1,2.1,21.972,21.972,0,0,1-2.85,1.854,32.1,32.1,0,0,1-3.076,1.493,25.291,25.291,0,0,1-2.782.995,7.681,7.681,0,0,1-1.946.362,3.218,3.218,0,0,1-1.448-.294.885.885,0,0,1-.587-.792.894.894,0,0,1,.475-.791,5.287,5.287,0,0,1,.972-.475q3.075-1.176,5-2.081a27.946,27.946,0,0,0,2.986-1.584,5.79,5.79,0,0,0,1.425-1.153,1.434,1.434,0,0,0,.361-.792,1.032,1.032,0,0,0-.316-.7,1.241,1.241,0,0,0-.95-.339,4.864,4.864,0,0,0-1.561.384,18.414,18.414,0,0,0-2.261,1.063q-1.246.679-2.511,1.538a24.459,24.459,0,0,0-2.331,1.788,10.222,10.222,0,0,0-1.718,1.877,3.158,3.158,0,0,0-.656,1.763,1.164,1.164,0,0,0,.973,1.155,6.762,6.762,0,0,0,1.968.293c.512,0,1.326-.051,2.442-.158l3.619-.339q1.945-.18,3.777-.339t2.873-.159q.906,0,2.443.045a25.3,25.3,0,0,1,3.031.272,9.48,9.48,0,0,1,2.6.746,1.592,1.592,0,0,1,1.108,1.425" fill="#630"/>
    <path id="パス_19" data-name="パス 19" d="M250.2,85.924a2.742,2.742,0,0,1-.5,1.855,1.509,1.509,0,0,1-1.132.543,2.262,2.262,0,0,1-1.222-.34,3.474,3.474,0,0,1-.948-.882,4.135,4.135,0,0,1-.636-1.266,4.823,4.823,0,0,1-.224-1.448,3.818,3.818,0,0,1,.089-.792,3.076,3.076,0,0,1,.295-.814,1.743,1.743,0,0,1,.565-.633,1.644,1.644,0,0,1,.95-.249,2.029,2.029,0,0,1,1.289.407,3.063,3.063,0,0,1,.838,1.018,5.537,5.537,0,0,1,.474,1.312,5.854,5.854,0,0,1,.158,1.289" fill="#630"/>
    <path id="パス_20" data-name="パス 20" d="M255.918,68.506a3.136,3.136,0,0,1-.249,1.313.826.826,0,0,1-.791.543,1.76,1.76,0,0,1-1.267-.476,3.4,3.4,0,0,1-.769-1.085,4.793,4.793,0,0,1-.362-1.176,5.823,5.823,0,0,1-.091-.792,3.962,3.962,0,0,1,.046-.543,2.566,2.566,0,0,1,.18-.633,1.277,1.277,0,0,1,.408-.521,1.184,1.184,0,0,1,.724-.2,1.435,1.435,0,0,1,.9.316,2.582,2.582,0,0,1,.679.815,4.733,4.733,0,0,1,.429,1.131,5.361,5.361,0,0,1,.159,1.311M261.3,86.24a3.115,3.115,0,0,1-.158,1.063,2.357,2.357,0,0,1-.362.678,1.1,1.1,0,0,1-.43.34,1.119,1.119,0,0,1-.407.09,1.726,1.726,0,0,1-1.266-.768,9.177,9.177,0,0,1-1.2-1.991,21.121,21.121,0,0,1-1.018-2.692q-.453-1.47-.792-2.895t-.52-2.6a12.653,12.653,0,0,1-.181-1.764,1.814,1.814,0,0,1,.136-.723,1.59,1.59,0,0,1,.271-.5.655.655,0,0,1,.543-.226,1.092,1.092,0,0,1,.566.181,2.458,2.458,0,0,1,.52.429c.151.167.293.34.43.521a1.393,1.393,0,0,1,.248.452q.092.182.566,1.425t1.063,2.805q.586,1.56,1.108,3.008t.7,2.036a3.6,3.6,0,0,1,.18,1.131" fill="#630"/>
    <path id="パス_21" data-name="パス 21" d="M290.642,89.407a2.577,2.577,0,0,1-.2,1.13,1.884,1.884,0,0,1-.453.612,1.414,1.414,0,0,1-.475.271,1.339,1.339,0,0,1-.317.068,2.864,2.864,0,0,1-1.356-.43,2.578,2.578,0,0,1-1.131-1.561,42.06,42.06,0,0,0-2.081-5.474q-.453-1.04-.995-2.013a13.232,13.232,0,0,0-1.132-1.719,7.716,7.716,0,0,0-1.176-1.221A1.921,1.921,0,0,0,280.1,78.6a1.609,1.609,0,0,0-1.267.566c-.333.377-.573.64-.724.791a6.512,6.512,0,0,0-.995,1.628,25.174,25.174,0,0,1-1.4,2.511,10.761,10.761,0,0,1-1.923,2.284,3.711,3.711,0,0,1-2.556,1,3.953,3.953,0,0,1-2.895-1.289,12.362,12.362,0,0,1-2.149-2.986,17.934,17.934,0,0,1-1.357-3.37,10.229,10.229,0,0,1-.475-2.488,2.313,2.313,0,0,1,.588-1.742,1.653,1.653,0,0,1,1.085-.565,1.512,1.512,0,0,1,1.2.656,8.737,8.737,0,0,1,.995,1.651q.474,1,.9,2.148t.86,2.149a8.65,8.65,0,0,0,.9,1.651,1.324,1.324,0,0,0,1.063.657,1.684,1.684,0,0,0,1.267-.679,10.436,10.436,0,0,0,1.153-1.674q.566-.993,1.2-2.171A14.591,14.591,0,0,1,277,77.147a8.133,8.133,0,0,1,1.787-1.673,4.067,4.067,0,0,1,2.352-.679,4.121,4.121,0,0,1,2.466.882,11.794,11.794,0,0,1,2.262,2.239,19.658,19.658,0,0,1,1.945,3.054,33.988,33.988,0,0,1,1.516,3.325A24.585,24.585,0,0,1,290.3,87.3a9.573,9.573,0,0,1,.34,2.1" fill="#630"/>
    <path id="パス_22" data-name="パス 22" d="M315.355,84.928q0,.814-1.176,1.289a11.87,11.87,0,0,1-2.828.7q-1.652.227-3.46.316t-3.032.182q-.405.043-1.923.135t-3.369.091a20.964,20.964,0,0,1-3.845-.295,7.949,7.949,0,0,1-2.443-.814,3.146,3.146,0,0,1-1.289-1.267,3.551,3.551,0,0,1-.385-1.651,4.719,4.719,0,0,1,.769-2.442,11.892,11.892,0,0,1,2.08-2.489,21.1,21.1,0,0,1,3.009-2.306,26.27,26.27,0,0,1,3.6-1.923,25.021,25.021,0,0,1,3.822-1.334,14.532,14.532,0,0,1,3.642-.5,5.557,5.557,0,0,1,2.284.452,1.67,1.67,0,0,1,1.018,1.674,3.032,3.032,0,0,1-.836,2.035,8.954,8.954,0,0,1-1.946,1.652,12.354,12.354,0,0,1-2.171,1.108,5.091,5.091,0,0,1-1.471.407,1.27,1.27,0,0,1-.995-.316,1.081,1.081,0,0,1-.271-.724,1.154,1.154,0,0,1,.068-.407.546.546,0,0,1,.2-.272q.543-.362,1.131-.769t1.086-.792a6.869,6.869,0,0,0,.814-.723.959.959,0,0,0,.317-.52c0-.182-.2-.272-.588-.272a6.9,6.9,0,0,0-1.945.362,21.912,21.912,0,0,0-2.534.973q-1.357.611-2.714,1.379a28.446,28.446,0,0,0-2.466,1.56,10.632,10.632,0,0,0-1.786,1.561,2.209,2.209,0,0,0-.679,1.358.7.7,0,0,0,.521.723,6.939,6.939,0,0,0,1.967.182q2.172,0,3.732-.069t2.941-.135q1.378-.068,2.849-.136t3.507-.068a6.2,6.2,0,0,1,1.606.226,8.981,8.981,0,0,1,1.538.566,8.129,8.129,0,0,1,1.176.679c.317.226.475.43.475.61" fill="#630"/>
    <path id="パス_23" data-name="パス 23" d="M118.807,82.334v5.26h-1.085v-5.26h-.6v-1h.6V78.611a2.16,2.16,0,0,1,.6-1.762,1.942,1.942,0,0,1,1.251-.408,2.108,2.108,0,0,1,.769.136v1.055a1.976,1.976,0,0,0-.709-.135.758.758,0,0,0-.693.331,1.876,1.876,0,0,0-.136.9v2.606h1.538v1Z" fill="#630"/>
    <path id="パス_24" data-name="パス 24" d="M121.191,84.489a3.316,3.316,0,1,1,3.315,3.285,3.211,3.211,0,0,1-3.315-3.285m1.115,0a2.2,2.2,0,1,0,2.2-2.336,2.168,2.168,0,0,0-2.2,2.336" fill="#630"/>
    <path id="パス_25" data-name="パス 25" d="M129.733,81.339h1.084v.678a1.741,1.741,0,0,1,1.417-.828,2.286,2.286,0,0,1,.965.256l-.513.979a1.114,1.114,0,0,0-.633-.211,1.051,1.051,0,0,0-.873.392,2.7,2.7,0,0,0-.363,1.688v3.3h-1.084Z" fill="#630"/>
    <path id="パス_26" data-name="パス 26" d="M139.683,87.006,136.8,81.339h1.236l2.215,4.477,2.035-4.477H143.5l-4.6,9.721h-1.206Z" fill="#630"/>
    <path id="パス_27" data-name="パス 27" d="M144.286,84.489a3.316,3.316,0,1,1,3.315,3.285,3.21,3.21,0,0,1-3.315-3.285m1.115,0a2.2,2.2,0,1,0,2.2-2.336,2.167,2.167,0,0,0-2.2,2.336" fill="#630"/>
    <path id="パス_28" data-name="パス 28" d="M153.867,84.987a2.124,2.124,0,0,0,.3,1.341,1.5,1.5,0,0,0,2.2,0,2.129,2.129,0,0,0,.3-1.341V81.34h1.086v3.768a2.488,2.488,0,0,1-.573,1.884,2.731,2.731,0,0,1-3.828,0,2.483,2.483,0,0,1-.572-1.884V81.34h1.084Z" fill="#630"/>
    <path id="パス_29" data-name="パス 29" d="M160.013,81.339H161.1v.678a1.741,1.741,0,0,1,1.418-.828,2.285,2.285,0,0,1,.964.256l-.512.979a1.119,1.119,0,0,0-.634-.211,1.051,1.051,0,0,0-.873.392,2.7,2.7,0,0,0-.363,1.688v3.3h-1.084Z" fill="#630"/>
    <path id="パス_30" data-name="パス 30" d="M169.075,87.594h-1.086V76.607h1.086v5.606a2.689,2.689,0,0,1,2.14-1.024,3.1,3.1,0,0,1,3.044,3.315,3.043,3.043,0,0,1-3,3.27,2.654,2.654,0,0,1-2.185-1.055Zm4.069-3.09a2.145,2.145,0,0,0-2.05-2.351,2.171,2.171,0,0,0-2.08,2.336,2.139,2.139,0,0,0,2.095,2.32,2.106,2.106,0,0,0,2.035-2.305" fill="#630"/>
    <path id="パス_31" data-name="パス 31" d="M181.748,86a3.726,3.726,0,0,1-.769,1.01,3.031,3.031,0,0,1-2.079.768,2.993,2.993,0,0,1-3.09-3.27,3.032,3.032,0,0,1,3.029-3.315,2.8,2.8,0,0,1,2.366,1.145,4.2,4.2,0,0,1,.589,2.352h-4.868a2,2,0,0,0,1.989,2.124,1.9,1.9,0,0,0,1.281-.452,2.5,2.5,0,0,0,.648-.859Zm-1.07-2.215a1.872,1.872,0,0,0-1.839-1.627A1.9,1.9,0,0,0,177,83.781Z" fill="#630"/>
    <path id="パス_32" data-name="パス 32" d="M186.313,82.786a.959.959,0,0,0-.874-.632.691.691,0,0,0-.754.708c0,.452.3.588,1.009.889a3.807,3.807,0,0,1,1.568.964,1.486,1.486,0,0,1,.332,1.011,1.989,1.989,0,0,1-2.155,2.048,2.235,2.235,0,0,1-2.185-1.6l.934-.392a1.414,1.414,0,0,0,1.265,1.025.972.972,0,0,0,1.026-.994c0-.588-.423-.784-1.01-1.04a4.072,4.072,0,0,1-1.522-.92,1.357,1.357,0,0,1-.287-.919,1.682,1.682,0,0,1,1.824-1.748,1.8,1.8,0,0,1,1.718,1.13Z" fill="#630"/>
    <path id="パス_33" data-name="パス 33" d="M190.438,82.334v5.26h-1.085v-5.26h-.663v-.995h.663v-2.26h1.085v2.26h1.085v.995Z" fill="#630"/>
    <rect id="長方形_26" data-name="長方形 26" width="1.084" height="10.986" transform="translate(196.064 76.608)" fill="#630"/>
    <path id="パス_34" data-name="パス 34" d="M199.958,78.2a.769.769,0,1,1-.768.77.773.773,0,0,1,.768-.77m.543,9.39h-1.086V81.339H200.5Z" fill="#630"/>
    <path id="パス_35" data-name="パス 35" d="M203.94,82.334v5.26h-1.085v-5.26h-.6v-1h.6V78.611a2.16,2.16,0,0,1,.6-1.762,1.944,1.944,0,0,1,1.251-.408,2.092,2.092,0,0,1,.768.136v1.055a1.971,1.971,0,0,0-.708-.135.758.758,0,0,0-.693.331,1.876,1.876,0,0,0-.136.9v2.606h1.537v1Z" fill="#630"/>
    <path id="パス_36" data-name="パス 36" d="M212.3,86a3.746,3.746,0,0,1-.769,1.01,3.033,3.033,0,0,1-2.079.768,2.993,2.993,0,0,1-3.09-3.27,3.032,3.032,0,0,1,3.029-3.315,2.8,2.8,0,0,1,2.366,1.145,4.2,4.2,0,0,1,.588,2.352h-4.867a2,2,0,0,0,1.988,2.124,1.9,1.9,0,0,0,1.282-.452,2.487,2.487,0,0,0,.647-.859Zm-1.07-2.215a1.872,1.872,0,0,0-1.839-1.627,1.9,1.9,0,0,0-1.839,1.627Z" fill="#630"/>
    <path id="パス_37" data-name="パス 37" d="M216.851,82.786a.958.958,0,0,0-.874-.632.691.691,0,0,0-.754.708c0,.452.3.588,1.01.889a3.809,3.809,0,0,1,1.567.964,1.479,1.479,0,0,1,.331,1.011,1.988,1.988,0,0,1-2.154,2.048,2.236,2.236,0,0,1-2.186-1.6l.935-.392a1.415,1.415,0,0,0,1.266,1.025.971.971,0,0,0,1.025-.994c0-.588-.423-.784-1.01-1.04a4.073,4.073,0,0,1-1.522-.92,1.356,1.356,0,0,1-.286-.919,1.681,1.681,0,0,1,1.823-1.748,1.8,1.8,0,0,1,1.718,1.13Z" fill="#630"/>
    <path id="パス_38" data-name="パス 38" d="M220.968,82.334v5.26h-1.085v-5.26h-.663v-.995h.663v-2.26h1.085v2.26h1.085v.995Z" fill="#630"/>
    <path id="パス_39" data-name="パス 39" d="M225.825,87.006l-2.879-5.667h1.236l2.216,4.477,2.034-4.477h1.206l-4.6,9.721h-1.206Z" fill="#630"/>
    <rect id="長方形_27" data-name="長方形 27" width="1.086" height="10.986" transform="translate(231.092 76.608)" fill="#630"/>
    <path id="パス_40" data-name="パス 40" d="M240.036,86a3.7,3.7,0,0,1-.768,1.01,3.029,3.029,0,0,1-2.079.768,2.993,2.993,0,0,1-3.09-3.27,3.032,3.032,0,0,1,3.029-3.315,2.8,2.8,0,0,1,2.366,1.145,4.2,4.2,0,0,1,.588,2.352h-4.868a2,2,0,0,0,1.99,2.124,1.9,1.9,0,0,0,1.281-.452,2.49,2.49,0,0,0,.648-.859Zm-1.069-2.215a1.872,1.872,0,0,0-1.839-1.627,1.9,1.9,0,0,0-1.839,1.627Z" fill="#630"/>
  </g>
</svg>
